#!OML:ASF X:\für Bonn\!DataBase\2005_08_10_Bjorn_Final\c3d\bjorn.ASF
:FULLY-SPECIFIED
:DEGREES
551
root -0.453049 1.24359 23.8716 -469.442 -177.645 369.618
lowerback 23.3451 0.982327 -0.515779
upperback 8.56185 -0.377304 -3.84088
thorax -3.64101 -0.800703 -3.71404
lowerneck -17.7116 -8.61896 -3.58197
upperneck 3.61634 -12.3622 9.89715
head 4.77317 -5.84501 2.43444
rclavicle -2.06736e-014 -3.37934e-015
rhumerus -199.735 -177.779 133.073
rradius 94.372
rwrist -9.3032
rhand -34.4488 19.0692
rfingers 7.12502
rthumb -7.6128 -10.7738
lclavicle -2.06736e-014 -3.37934e-015
lhumerus -369.705 -37.2353 -305.391
lradius 40.1109
lwrist -29.5704
lhand -27.3752 -17.9705
lfingers 7.12502
lthumb -0.782426 12.0078
rfemur -26.4285 -16.531 -13.547
rtibia 109.752
rfoot 37.1968 13.7498
rtoes 2.01007
lfemur -40.7034 -0.0278384 0.180052
ltibia 121
lfoot 35.4155 -9.7601
ltoes 12.4864
552
root -0.452526 1.24339 23.8671 -469.426 -177.642 369.57
lowerback 23.3055 0.992491 -0.450676
upperback 8.55447 -0.346523 -3.83853
thorax -3.62708 -0.783467 -3.75665
lowerneck -18.0187 -8.65556 -3.60421
upperneck 3.68194 -12.403 9.87106
head 4.84307 -5.85542 2.41249
rclavicle -3.18055e-015 -1.8487e-014
rhumerus -200.321 -177.816 133.049
rradius 94.081
rwrist -9.36691
rhand -34.4644 19.1415
rfingers 7.12502
rthumb -7.62781 -10.7009
lclavicle -3.18055e-015 -1.8487e-014
lhumerus -369.885 -37.1558 -305.336
lradius 40.4161
lwrist -29.512
lhand -27.4542 -18.0408
lfingers 7.12502
lthumb -0.858768 11.9372
rfemur -26.4859 -16.5261 -13.544
rtibia 109.785
rfoot 37.1524 13.8264
rtoes 1.89674
lfemur -40.5291 -0.117628 0.186801
ltibia 120.963
lfoot 35.0859 -9.90353
ltoes 12.7924
553
root -0.450974 1.24323 23.8624 -469.396 -177.647 369.528
lowerback 23.2494 0.997278 -0.362547
upperback 8.54795 -0.31953 -3.86467
thorax -3.60405 -0.767619 -3.84239
lowerneck -18.3036 -8.66549 -3.52896
upperneck 3.70737 -12.4272 9.81546
head 4.88793 -5.8614 2.3706
rclavicle 5.08889e-014 -1.10325e-013
rhumerus -200.914 -177.836 132.972
rradius 93.797
rwrist -9.46097
rhand -34.43 19.1784
rfingers 7.12502
rthumb -7.59465 -10.6653
lclavicle 5.08889e-014 -1.10325e-013
lhumerus -370.023 -37.1356 -305.355
lradius 40.6976
lwrist -29.3978
lhand -27.5056 -18.1049
lfingers 7.12502
lthumb -0.908446 11.8729
rfemur -26.5521 -16.5472 -13.5404
rtibia 109.832
rfoot 37.1456 13.8137
rtoes 1.92929
lfemur -40.3951 -0.18328 0.21881
ltibia 120.951
lfoot 34.7155 -10.0062
ltoes 13.1769
554
root -0.449833 1.24346 23.8597 -469.371 -177.643 369.479
lowerback 23.1974 1.0132 -0.293095
upperback 8.54855 -0.283792 -3.88795
thorax -3.57468 -0.748642 -3.91651
lowerneck -18.596 -8.6732 -3.49091
upperneck 3.74555 -12.446 9.79937
head 4.94273 -5.86238 2.34625
rclavicle -2.8625e-014 2.8625e-014
rhumerus -201.49 -177.829 132.853
rradius 93.4902
rwrist -9.47933
rhand -34.3582 19.1795
rfingers 7.12502
rthumb -7.52534 -10.6666
lclavicle -2.8625e-014 2.8625e-014
lhumerus -370.166 -37.0958 -305.354
lradius 40.9952
lwrist -29.3296
lhand -27.5634 -18.1516
lfingers 7.12502
lthumb -0.964275 11.8259
rfemur -26.6117 -16.5539 -13.5311
rtibia 109.866
rfoot 37.1128 13.897
rtoes 1.82834
lfemur -40.2653 -0.24126 0.221413
ltibia 120.942
lfoot 34.3566 -10.1689
ltoes 13.4075
555
root -0.448657 1.2428 23.8565 -469.347 -177.623 369.437
lowerback 23.1413 1.03186 -0.241872
upperback 8.55931 -0.249849 -3.91418
thorax -3.53229 -0.73146 -3.98279
lowerneck -18.8955 -8.67741 -3.4394
upperneck 3.79084 -12.4605 9.76308
head 4.99814 -5.86158 2.31394
rclavicle -2.06736e-014 1.78906e-014
rhumerus -202.066 -177.848 132.746
rradius 93.2105
rwrist -9.52234
rhand -34.2766 19.1637
rfingers 7.12502
rthumb -7.44653 -10.6852
lclavicle -2.06736e-014 1.78906e-014
lhumerus -370.289 -37.0247 -305.351
lradius 41.2719
lwrist -29.2134
lhand -27.6047 -18.2561
lfingers 7.12502
lthumb -1.00411 11.7213
rfemur -26.6683 -16.5691 -13.5549
rtibia 109.891
rfoot 37.1134 13.9431
rtoes 1.88945
lfemur -40.1529 -0.319103 0.198882
ltibia 120.936
lfoot 34.029 -10.2489
ltoes 13.6893
556
root -0.447795 1.24328 23.8544 -469.329 -177.624 369.402
lowerback 23.0791 1.04733 -0.166325
upperback 8.58052 -0.215866 -3.94316
thorax -3.47517 -0.714412 -4.06595
lowerneck -19.1922 -8.67839 -3.36693
upperneck 3.811 -12.4764 9.72834
head 5.04411 -5.86274 2.27947
rclavicle 3.18055e-015 3.26007e-014
rhumerus -202.603 -177.833 132.593
rradius 92.865
rwrist -9.46534
rhand -34.206 19.081
rfingers 7.12502
rthumb -7.37837 -10.7703
lclavicle 3.18055e-015 3.26007e-014
lhumerus -370.399 -37.0018 -305.358
lradius 41.54
lwrist -29.0674
lhand -27.6335 -18.282
lfingers 7.12502
lthumb -1.03191 11.6953
rfemur -26.7098 -16.5806 -13.5541
rtibia 109.913
rfoot 37.0917 13.9949
rtoes 1.8134
lfemur -40.0364 -0.377592 0.199085
ltibia 120.926
lfoot 33.697 -10.2864
ltoes 13.9107
557
root -0.447013 1.24306 23.8533 -469.326 -177.647 369.375
lowerback 23.0561 1.04149 -0.0980474
upperback 8.58614 -0.208458 -3.94989
thorax -3.45644 -0.709599 -4.11429
lowerneck -19.4165 -8.65416 -3.3498
upperneck 3.81101 -12.445 9.72239
head 5.07511 -5.84141 2.2708
rclavicle 2.38542e-014 -2.38542e-015
rhumerus -203.111 -177.911 132.451
rradius 92.5149
rwrist -9.40223
rhand -34.1133 18.9084
rfingers 7.12502
rthumb -7.2889 -10.9461
lclavicle 2.38542e-014 -2.38542e-015
lhumerus -370.598 -36.9599 -305.302
lradius 41.8168
lwrist -28.8649
lhand -27.6798 -18.3305
lfingers 7.12502
lthumb -1.07663 11.6465
rfemur -26.7107 -16.5842 -13.5248
rtibia 109.913
rfoot 37.0813 14.0127
rtoes 1.75871
lfemur -39.9391 -0.475605 0.204642
ltibia 120.923
lfoot 33.3948 -10.3156
ltoes 14.1547
558
root -0.445546 1.24293 23.8524 -469.325 -177.636 369.338
lowerback 23.0197 1.06317 -0.0636729
upperback 8.61148 -0.176425 -3.96345
thorax -3.40799 -0.695002 -4.1566
lowerneck -19.6914 -8.64423 -3.2921
upperneck 3.84405 -12.4389 9.67042
head 5.1198 -5.83215 2.23665
rclavicle -2.54444e-014 -4.96962e-015
rhumerus -203.606 -177.958 132.304
rradius 92.1584
rwrist -9.29078
rhand -34.065 18.6914
rfingers 7.12502
rthumb -7.24226 -11.1647
lclavicle -2.54444e-014 -4.96962e-015
lhumerus -370.749 -36.908 -305.258
lradius 42.0755
lwrist -28.7111
lhand -27.7745 -18.3824
lfingers 7.12502
lthumb -1.16817 11.5941
rfemur -26.7298 -16.5937 -13.5428
rtibia 109.924
rfoot 37.0849 13.9974
rtoes 1.90406
lfemur -39.8446 -0.530701 0.17883
ltibia 120.909
lfoot 33.1035 -10.3823
ltoes 14.2159
559
root -0.44546 1.24315 23.8513 -469.321 -177.633 369.312
lowerback 22.9921 1.07212 -0.0236642
upperback 8.61925 -0.156907 -3.97324
thorax -3.38392 -0.684999 -4.19499
lowerneck -19.9046 -8.62967 -3.26166
upperneck 3.85536 -12.419 9.6279
head 5.14958 -5.81803 2.21386
rclavicle 3.33958e-014 -2.28602e-014
rhumerus -204.102 -178.027 132.112
rradius 91.8031
rwrist -9.13766
rhand -33.9756 18.4463
rfingers 7.12502
rthumb -7.15602 -11.4127
lclavicle 3.33958e-014 -2.28602e-014
lhumerus -370.945 -36.883 -305.17
lradius 42.3258
lwrist -28.5171
lhand -27.79 -18.3915
lfingers 7.12502
lthumb -1.18309 11.585
rfemur -26.745 -16.5993 -13.5572
rtibia 109.929
rfoot 37.0907 14.0281
rtoes 1.85607
lfemur -39.7716 -0.59199 0.14033
ltibia 120.913
lfoot 32.8191 -10.4829
ltoes 14.0547
560
root -0.444604 1.24382 23.851 -469.323 -177.65 369.266
lowerback 22.9552 1.08452 0.0136519
upperback 8.64887 -0.134823 -3.97038
thorax -3.33119 -0.675187 -4.21852
lowerneck -20.1322 -8.6078 -3.23781
upperneck 3.85143 -12.3914 9.61109
head 5.17865 -5.79938 2.20065
rclavicle 3.18055e-015 1.33186e-014
rhumerus -204.485 -178.107 131.914
rradius 91.3444
rwrist -8.96174
rhand -33.9589 18.2372
rfingers 7.12502
rthumb -7.13989 -11.6224
lclavicle 3.18055e-015 1.33186e-014
lhumerus -371.115 -36.8135 -305.093
lradius 42.5515
lwrist -28.3143
lhand -27.8331 -18.4321
lfingers 7.12502
lthumb -1.22476 11.5441
rfemur -26.7528 -16.5902 -13.5336
rtibia 109.932
rfoot 37.0735 14.0007
rtoes 1.93984
lfemur -39.6763 -0.620516 0.154486
ltibia 120.902
lfoot 32.59 -10.4597
ltoes 14.1822
561
root -0.443877 1.24382 23.8496 -469.315 -177.654 369.238
lowerback 22.9316 1.08129 0.0244565
upperback 8.64699 -0.13484 -3.97016
thorax -3.3214 -0.67429 -4.22426
lowerneck -20.2898 -8.57411 -3.18524
upperneck 3.8349 -12.3457 9.5423
head 5.18619 -5.77619 2.17246
rclavicle -2.22639e-014 5.56597e-014
rhumerus -204.885 -178.285 131.703
rradius 90.919
rwrist -8.84877
rhand -33.9122 18.026
rfingers 7.12502
rthumb -7.09478 -11.8351
lclavicle -2.22639e-014 5.56597e-014
lhumerus -371.399 -36.7547 -304.953
lradius 42.8212
lwrist -28.0821
lhand -27.8771 -18.3699
lfingers 7.12502
lthumb -1.26718 11.6061
rfemur -26.7754 -16.6 -13.5288
rtibia 109.938
rfoot 37.0893 14.0243
rtoes 1.8559
lfemur -39.6295 -0.666855 0.144609
ltibia 120.909
lfoot 32.4325 -10.3856
ltoes 14.41
562
root -0.442665 1.24298 23.8475 -469.321 -177.662 369.224
lowerback 22.9099 1.09061 0.0427941
upperback 8.67426 -0.120735 -3.96382
thorax -3.27963 -0.668625 -4.2312
lowerneck -20.4651 -8.55922 -3.19985
upperneck 3.80148 -12.3193 9.54897
head 5.20194 -5.75979 2.17459
rclavicle -2.22639e-014 7.95139e-015
rhumerus -205.23 -178.405 131.501
rradius 90.4335
rwrist -8.73835
rhand -33.8808 17.8359
rfingers 7.12502
rthumb -7.0645 -12.0262
lclavicle -2.22639e-014 7.95139e-015
lhumerus -371.576 -36.6964 -304.85
lradius 43.0417
lwrist -27.8763
lhand -27.8728 -18.3903
lfingers 7.12502
lthumb -1.26302 11.5858
rfemur -26.7735 -16.6188 -13.5393
rtibia 109.951
rfoot 37.0973 13.9799
rtoes 1.97936
lfemur -39.5924 -0.714634 0.141356
ltibia 120.919
lfoot 32.305 -10.3588
ltoes 14.3666
